<svg width="368" height="307" viewBox="0 0 368 307" fill="none" xmlns="http://www.w3.org/2000/svg">
<g clip-path="url(#clip0)">
<path d="M298.914 290.01H75.5344L75.6352 266.344C75.8901 206.463 123.723 157.121 183.643 156.103C184.29 156.092 184.939 156.086 185.588 156.086H185.588C199.071 156.076 212.447 158.477 225.084 163.176C267.482 178.954 295.939 219.039 297.832 264.207L298.914 290.01Z" fill="#74B9FF"/>
<path d="M368 290.01H0V290.93H368V290.01Z" fill="#2F2E41"/>
<path d="M183.441 184.163L193.284 191.316L203.127 275.362H226.391L218.338 179.692L186.126 167.175L183.441 184.163Z" fill="#2F2E41"/>
<path d="M142.28 157.34C142.28 157.34 139.596 187.74 150.334 188.634C161.071 189.528 202.232 179.693 202.232 179.693L221.918 249.433L251.446 234.233C251.446 234.233 233.55 155.552 222.812 151.081C212.075 146.611 176.283 137.67 176.283 137.67L150.334 142.14L142.28 157.34Z" fill="#2F2E41"/>
<path d="M206.706 273.574C206.706 273.574 201.337 294.138 204.916 295.926C207.069 297.001 209.16 298.195 211.18 299.503V295.926C211.18 295.926 215.654 300.397 215.654 303.973C215.654 307.55 239.814 308.444 239.814 303.973C239.814 299.503 238.919 294.138 234.445 291.456C229.971 288.773 224.602 273.574 224.602 273.574H206.706Z" fill="#2F2E41"/>
<path d="M232.655 236.915L234.445 253.903L240.708 264.632L255.92 247.644L244.288 228.869L232.655 236.915Z" fill="#2F2E41"/>
<path d="M246.972 253.903C246.972 253.903 250.267 242.646 253.541 243.804C256.815 244.962 269.342 256.586 269.342 256.586L278.29 261.95C278.29 261.95 296.186 263.738 290.817 269.103C285.448 274.468 265.763 281.621 256.815 278.044C247.867 274.468 246.077 273.574 246.077 273.574L243.393 275.362L232.655 272.68L234.445 253.903C234.445 253.903 237.129 261.95 246.972 253.903Z" fill="#2F2E41"/>
<path d="M172.704 45.5769C184.07 45.5769 193.284 36.3699 193.284 25.0125C193.284 13.6551 184.07 4.44809 172.704 4.44809C161.337 4.44809 152.123 13.6551 152.123 25.0125C152.123 36.3699 161.337 45.5769 172.704 45.5769Z" fill="#9F616A"/>
<path d="M159.729 37.0829C159.729 37.0829 161.519 55.8591 156.15 55.8591C150.781 55.8591 157.045 79.1058 171.361 79.1058C185.678 79.1058 191.047 51.3886 191.047 51.3886C191.047 51.3886 181.204 47.8122 182.994 36.1888C184.783 24.5655 159.729 37.0829 159.729 37.0829Z" fill="#9F616A"/>
<path d="M158.303 54.4268L150.781 57.6473L130.366 66.2777C129.543 66.6257 128.854 67.2301 128.403 68.001C127.952 68.7718 127.762 69.6677 127.862 70.5551L135.569 139.011C135.569 139.011 127.516 155.999 140.043 156.893L141.833 163.152L156.15 146.164L209.838 144.375L210.733 57.6473L186.167 47.9477C186.167 47.9477 182.826 66.4061 158.303 54.4268Z" fill="#3F3D56"/>
<path d="M133.332 68.8236L130.026 67.8796C129.655 67.7738 129.266 67.7477 128.884 67.8032C128.503 67.8586 128.137 67.9944 127.812 68.2014C127.487 68.4084 127.209 68.682 126.998 69.0041C126.786 69.3262 126.645 69.6895 126.585 70.07L117.81 125.069C117.125 129.142 117.781 133.327 119.677 136.997C122.389 142.126 128.019 146.778 139.596 141.246L147.649 83.1293L133.332 68.8236Z" fill="#3F3D56"/>
<path d="M200.442 56.3062L211.18 58.0944L240.708 99.2232L243.393 106.376L260.394 101.011C260.394 101.011 259.499 109.058 268.447 108.164C268.447 108.164 257.71 137.67 235.34 128.729C212.97 119.788 205.811 92.9644 205.811 92.9644L200.442 56.3062Z" fill="#3F3D56"/>
<path d="M212.97 74.1884L172.703 58.0942L170.914 63.4589L189.705 79.5527L212.97 74.1884Z" fill="#CCCCCC"/>
<path d="M160.312 26.3235C161.073 26.1207 161.184 25.1123 161.21 24.3266C161.346 20.1191 163.882 15.8017 167.912 14.5768C169.459 14.153 171.079 14.0639 172.662 14.3156C174.923 14.6165 177.106 15.3442 179.095 16.46C180.145 17.0497 181.175 17.76 182.365 17.9402C183.152 18.0592 186.557 19.0484 187.34 19.1876C189.062 19.4937 190.662 21.0329 192.314 20.4601C193.894 19.9122 194.244 17.8673 194.282 16.196C194.369 12.3885 191.477 7.11879 188.929 4.28631C186.995 2.13685 184.084 1.14462 181.238 0.628689C177.914 0.0949328 174.545 -0.109857 171.18 0.0172934C166.626 0.0984574 161.945 0.449717 157.838 2.41884C153.731 4.38796 150.282 8.30698 150.085 12.8543C150.044 13.8016 150.142 14.7528 150.062 15.6976C149.868 18.0024 148.643 20.0842 148.068 22.3248C147.657 23.9688 147.596 25.6806 147.888 27.3498C148.18 29.0189 148.819 30.6085 149.763 32.0158C151.287 34.2571 157.382 36.2918 157.294 39.0001C158.396 37.8597 155.798 36.7117 156.899 35.5713C157.393 35.1947 157.742 34.6603 157.889 34.0573C158.036 33.4544 157.972 32.8193 157.707 32.2581L156.537 27.6989C156.323 26.864 156.112 25.9604 156.435 25.1616C157.69 22.0652 159.045 26.6616 160.312 26.3235Z" fill="#2F2E41"/>
<path d="M170.914 63.4589L153.913 129.623L220.128 152.87L258.605 120.681L282.764 48.2593L243.393 76.8706L170.914 63.4589Z" fill="#F2F2F2"/>
<path d="M174.16 70.6267L173.932 71.4911L238.357 88.4791L238.585 87.6147L174.16 70.6267Z" fill="#E6E6E6"/>
<path d="M172.37 75.0972L172.142 75.9616L236.568 92.9496L236.796 92.0852L172.37 75.0972Z" fill="#E6E6E6"/>
<path d="M171.475 79.5678L171.247 80.4321L235.673 97.4201L235.901 96.5558L171.475 79.5678Z" fill="#E6E6E6"/>
<path d="M170.581 84.0383L170.352 84.9026L234.778 101.891L235.006 101.026L170.581 84.0383Z" fill="#E6E6E6"/>
<path d="M169.686 88.5088L169.458 89.3732L233.883 106.361L234.111 105.497L169.686 88.5088Z" fill="#E6E6E6"/>
<path d="M168.791 92.9793L168.563 93.8437L232.988 110.832L233.217 109.967L168.791 92.9793Z" fill="#E6E6E6"/>
<path d="M167.896 97.4499L167.668 98.3142L232.094 115.302L232.322 114.438L167.896 97.4499Z" fill="#E6E6E6"/>
<path d="M167.001 101.92L166.773 102.785L231.199 119.773L231.427 118.908L167.001 101.92Z" fill="#E6E6E6"/>
<path d="M166.107 106.391L165.878 107.255L230.304 124.243L230.532 123.379L166.107 106.391Z" fill="#E6E6E6"/>
<path d="M143.631 112.128C143.631 112.128 163.756 100.117 172.704 108.164C181.652 116.211 146.754 127.835 146.754 127.835L143.631 112.128Z" fill="#9F616A"/>
<path d="M121.7 117.999L147.649 108.164C147.649 108.164 143.175 125.152 152.123 126.046L139.596 141.246C139.596 141.246 114.542 141.246 121.7 117.999Z" fill="#3F3D56"/>
<path d="M189.985 117.633L224.418 129.229L216.269 146.977L181.836 135.382L189.985 117.633Z" fill="#E6E6E6"/>
<path d="M250.999 80.0001L276.948 60.3295L269.79 84.4706L242.945 104.141L250.999 80.0001Z" fill="#CCCCCC"/>
<path d="M264.15 93.0556L238.201 112.725L238.742 113.438L264.691 93.7681L264.15 93.0556Z" fill="#E6E6E6"/>
<path d="M262.361 102.891L236.411 122.56L236.952 123.273L262.902 103.603L262.361 102.891Z" fill="#E6E6E6"/>
<path d="M265.763 109.058C265.763 109.058 288.133 95.6468 273.816 90.2821C259.499 84.9175 259.499 105.482 259.499 105.482C259.499 105.482 258.604 109.952 265.763 109.058Z" fill="#9F616A"/>
<path opacity="0.1" d="M134.675 79.1059L133.78 113.976L147.649 110.021L136.464 110.399L134.675 79.1059Z" fill="black"/>
<path d="M37.0343 274.24C39.8314 284.572 49.4123 290.971 49.4123 290.971C49.4123 290.971 54.4581 280.618 51.6609 270.286C48.8638 259.954 39.2829 253.556 39.2829 253.556C39.2829 253.556 34.2371 263.908 37.0343 274.24Z" fill="#8985A8"/>
<path d="M41.1445 272.02C48.8199 279.486 49.7574 290.962 49.7574 290.962C49.7574 290.962 38.2506 290.335 30.5751 282.869C22.8997 275.403 21.9622 263.926 21.9622 263.926C21.9622 263.926 33.469 264.554 41.1445 272.02Z" fill="#3F3D56"/>
<path d="M302.138 174.495H288.32V188.302H302.138V174.495Z" fill="#F2F2F2"/>
<path d="M246.869 18.0211H233.051V31.8276H246.869V18.0211Z" fill="#F2F2F2"/>
<path d="M73.2315 157.927C77.0471 157.927 80.1402 154.837 80.1402 151.024C80.1402 147.211 77.0471 144.121 73.2315 144.121C69.416 144.121 66.3229 147.211 66.3229 151.024C66.3229 154.837 69.416 157.927 73.2315 157.927Z" fill="#F2F2F2"/>
</g>
<defs>
<clipPath id="clip0">
<rect width="368" height="307" fill="white"/>
</clipPath>
</defs>
</svg>
